<svg width="36" height="36" viewBox="0 0 36 36" fill="none" xmlns="http://www.w3.org/2000/svg">
<g clip-path="url(#clip0_550_127)">
<path d="M35.798 17.897C35.7977 22.6442 33.9117 27.1969 30.5549 30.5536C27.198 33.9102 22.6452 35.796 17.898 35.796C8.013 35.796 0 27.783 0 17.898C0 8.01299 8.014 0 17.898 0C27.782 0 35.796 8.01399 35.796 17.9" fill="#1A1918"/>
<path d="M18.2001 10.9329L22.8321 22.3649L15.8361 16.8549L18.2001 10.9329ZM26.4281 24.9979L19.3031 7.85194C19.1001 7.35794 18.7031 7.09595 18.1991 7.09595C17.6951 7.09595 17.2691 7.35794 17.0651 7.85194L9.24512 26.659H11.9201L15.0151 18.9049L24.2531 26.368C24.6251 26.668 24.8931 26.8039 25.2411 26.8039C25.9391 26.8039 26.5491 26.2809 26.5491 25.5259C26.5491 25.4029 26.5051 25.2079 26.4271 24.9979H26.4281Z" fill="white"/>
</g>
<defs>
<clipPath id="clip0_550_127">
<rect width="35.8" height="35.8" fill="white"/>
</clipPath>
</defs>
</svg>
