<svg width="146" height="146" viewBox="0 0 146 146" fill="none" xmlns="http://www.w3.org/2000/svg">
<g clip-path="url(#clip0_805_122)">
<path d="M146 72.9959C145.999 92.3582 138.307 110.927 124.616 124.618C110.925 138.309 92.3571 146 72.9959 146C32.6805 146 0 113.318 0 73C0 32.6824 32.6846 0 72.9959 0C113.307 0 145.992 32.6864 145.992 73.0082" fill="#1A1918"/>
<path d="M71.1478 52.79L87.2591 90.8967L62.9252 72.53L71.1478 52.79ZM99.7669 99.6733L74.9843 42.52C74.2782 40.8733 72.8974 40 71.1444 40C69.3913 40 67.9096 40.8733 67.2 42.52L40 105.21H49.3044L60.0696 79.3633L92.2017 104.24C93.4957 105.24 94.4278 105.693 95.6383 105.693C98.0661 105.693 100.188 103.95 100.188 101.433C100.188 101.023 100.038 100.373 99.7669 99.6733Z" fill="white"/>
<path d="M120 100C120 103.683 116.886 106.667 113.043 106.667C109.201 106.667 106.087 103.683 106.087 100C106.087 96.3175 109.201 93.3333 113.043 93.3333C116.886 93.3333 120 96.3175 120 100Z" fill="#EA281E"/>
</g>
<defs>
<clipPath id="clip0_805_122">
<rect width="146" height="146" fill="white"/>
</clipPath>
</defs>
</svg>
