<svg width="83" height="68" viewBox="0 0 83 68" fill="none" xmlns="http://www.w3.org/2000/svg">
<path d="M30.7152 29.6565L22.3631 24.8579L14 29.6565V39.2317L22.3631 44.0194L30.7152 39.2317V29.6565ZM28.9168 38.2019L22.3631 41.9488L15.8095 38.2019V30.6863L22.3631 26.9285L28.9168 30.6863V38.2019Z" fill="#414042"/>
<path d="M48.7678 29.6456L40.7392 24.8579L32.7212 29.6456V39.2208L40.7392 44.0194L48.7678 39.2208V29.6456Z" fill="#414042"/>
<path d="M59.1255 24.8579L50.7734 29.6565V39.2317L59.1255 44.0194L67.4886 39.2317V29.6565L59.1255 24.8579ZM65.6794 38.2019L59.1255 41.9488L52.5719 38.2019V30.6863L59.1255 26.9285L65.6794 30.6863V38.2019Z" fill="#414042"/>
<path d="M23.3604 45.5144V55.0897L31.7345 59.8773L40.0755 55.0897V45.5144L31.7345 40.7158L23.3604 45.5144ZM38.2464 54.0927L31.7345 57.8067L25.1233 54.0927V46.5442L31.7345 42.7864L38.2685 46.5442L38.2464 54.0927Z" fill="#414042"/>
<path d="M41.4131 45.5144V55.0897L49.7651 59.8773L58.1283 55.0897V45.5144L49.7651 40.7158L41.4131 45.5144ZM56.3188 54.0927L49.7651 57.8396L43.2225 54.0927V46.5442L49.7651 42.7864L56.3188 46.5442V54.0927Z" fill="#414042"/>
<path d="M40.0755 23.3738V13.7657L31.7456 9L23.3604 13.7657V23.341L31.7456 28.1615L40.0755 23.3738ZM25.1257 14.8613L31.7456 11.0706L38.2661 14.8613V22.3769L31.7456 26.0909L25.1257 22.344V14.8613Z" fill="#414042"/>
<path d="M58.1283 23.4067V13.7986L49.7651 9L41.4131 13.7986V23.3738L49.7651 28.1615L58.1283 23.4067ZM43.2225 14.8941L49.7651 11.1364L56.3188 14.8941V22.4097L49.7651 26.1566L43.2225 22.4097V14.8941Z" fill="#414042"/>
</svg>
