<svg aria-hidden="true" style="position: absolute; width: 0; height: 0; overflow: hidden;" version="1.1" xmlns="http://www.w3.org/2000/svg" xmlns:xlink="http://www.w3.org/1999/xlink">
<defs>
<symbol id="icon-external-link" viewBox="0 0 24 24">
<svg viewBox="0 0 13 12" fill="none" xmlns="http://www.w3.org/2000/svg">
<path d="M11.8333 5.33333C11.6565 5.33333 11.487 5.40357 11.3619 5.5286C11.2369 5.65362 11.1667 5.82319 11.1667 6V10C11.1667 10.1768 11.0964 10.3464 10.9714 10.4714C10.8464 10.5964 10.6768 10.6667 10.5 10.6667H2.5C2.32319 10.6667 2.15362 10.5964 2.0286 10.4714C1.90357 10.3464 1.83333 10.1768 1.83333 10V2C1.83333 1.82319 1.90357 1.65362 2.0286 1.5286C2.15362 1.40357 2.32319 1.33333 2.5 1.33333H6.5C6.67681 1.33333 6.84638 1.2631 6.9714 1.13807C7.09643 1.01305 7.16667 0.843478 7.16667 0.666667C7.16667 0.489856 7.09643 0.320286 6.9714 0.195262C6.84638 0.0702379 6.67681 0 6.5 0H2.5C1.96957 0 1.46086 0.210714 1.08579 0.585787C0.710714 0.960859 0.5 1.46957 0.5 2V10C0.5 10.5304 0.710714 11.0391 1.08579 11.4142C1.46086 11.7893 1.96957 12 2.5 12H10.5C11.0304 12 11.5391 11.7893 11.9142 11.4142C12.2893 11.0391 12.5 10.5304 12.5 10V6C12.5 5.82319 12.4298 5.65362 12.3047 5.5286C12.1797 5.40357 12.0101 5.33333 11.8333 5.33333Z" fill="#F5F5F7"/>
<path d="M9.16679 1.33333H10.2201L6.02679 5.52C5.9643 5.58198 5.91471 5.65571 5.88086 5.73695C5.84702 5.81819 5.82959 5.90533 5.82959 5.99333C5.82959 6.08134 5.84702 6.16848 5.88086 6.24972C5.91471 6.33096 5.9643 6.40469 6.02679 6.46667C6.08876 6.52915 6.1625 6.57875 6.24374 6.61259C6.32498 6.64644 6.41211 6.66387 6.50012 6.66387C6.58813 6.66387 6.67527 6.64644 6.75651 6.61259C6.83775 6.57875 6.91148 6.52915 6.97346 6.46667L11.1668 2.28V3.33333C11.1668 3.51014 11.237 3.67971 11.3621 3.80474C11.4871 3.92976 11.6566 4 11.8335 4C12.0103 4 12.1798 3.92976 12.3049 3.80474C12.4299 3.67971 12.5001 3.51014 12.5001 3.33333V0.666667C12.5001 0.489856 12.4299 0.320286 12.3049 0.195262C12.1798 0.0702379 12.0103 0 11.8335 0H9.16679C8.98998 0 8.82041 0.0702379 8.69538 0.195262C8.57036 0.320286 8.50012 0.489856 8.50012 0.666667C8.50012 0.843478 8.57036 1.01305 8.69538 1.13807C8.82041 1.2631 8.98998 1.33333 9.16679 1.33333Z" fill="#F5F5F7"/>
</svg>

</symbol>
<symbol id="icon-sass" viewBox="0 0 32 32">
<svg width="100%" height="100%" viewBox="0 0 100 76"  xmlns="http://www.w3.org/2000/svg">
<path d="M47.1637 56.7057C47.1168 56.7994 47.07 56.8744 47.1637 56.7057V56.7057ZM86.0888 43.1119C82.9451 43.1119 79.8451 43.8306 77.0263 45.2213C76.1044 43.3619 75.1513 41.7369 74.995 40.5181C74.8075 39.0963 74.6044 38.2525 74.8232 36.565C75.0419 34.8775 76.0263 32.4869 76.0107 32.315C75.995 32.1431 75.7919 31.2837 73.7763 31.2681C71.7607 31.2525 70.0263 31.6587 69.8232 32.19C69.4665 33.1606 69.1895 34.1587 68.995 35.1744C68.6356 37.0025 64.9669 43.5338 62.8888 46.94C62.2013 45.6119 61.6231 44.44 61.4981 43.5025C61.3106 42.0806 61.1075 41.2369 61.3263 39.5494C61.545 37.8619 62.5294 35.4713 62.5138 35.2994C62.4981 35.1275 62.295 34.2681 60.2825 34.2525C58.27 34.2369 56.5325 34.6431 56.3294 35.1744C56.1262 35.7056 55.9075 36.9556 55.5012 38.1588C55.095 39.3619 50.2043 50.2369 48.9262 53.065C48.27 54.5025 47.7075 55.6588 47.3012 56.44C47.2387 56.565 47.1918 56.6432 47.1606 56.7057C47.2075 56.6275 47.2387 56.5494 47.2387 56.5807C46.895 57.2525 46.6918 57.6275 46.6918 57.6275V57.6432C46.4262 58.1432 46.1293 58.5963 45.9887 58.5963C45.895 58.5963 45.6918 57.2838 46.0356 55.4869C46.77 51.7057 48.5043 45.8306 48.4887 45.6275C48.4731 45.5181 48.8168 44.5025 47.3481 43.9556C45.9262 43.44 45.4106 44.2994 45.2856 44.2994C45.1606 44.2994 45.0668 44.6119 45.0668 44.6119C45.0668 44.6119 46.645 37.9869 42.0356 37.9869C39.1606 37.9869 35.1605 41.1431 33.1949 44.0025C31.9605 44.6744 29.2887 46.1275 26.4761 47.6744L23.2418 49.4556C23.1636 49.3775 23.1011 49.2994 23.023 49.2213C17.4292 43.2525 7.10422 39.0338 7.54172 31.0181C7.69797 28.0962 8.7136 20.4244 27.398 11.1119C42.7106 3.48684 54.9512 5.58059 57.0606 10.2368C60.0919 16.8775 50.5137 29.2369 34.6137 31.0181C28.5512 31.69 25.3668 29.3462 24.5699 28.4712C23.7418 27.5494 23.6168 27.5025 23.3043 27.6744C22.7886 27.9556 23.1168 28.7681 23.3043 29.2525C23.773 30.4869 25.7261 32.6744 29.0543 33.7681C31.9762 34.7213 39.0824 35.2525 47.6731 31.9244C57.3262 28.2056 64.8419 17.8462 62.6356 9.17435C60.3919 0.361837 45.7793 -2.52879 31.9637 2.37747C23.7293 5.29934 14.8261 9.8931 8.42297 15.8775C0.813572 23.0025 -0.402057 29.2056 0.0979447 31.7994C1.8792 41.0025 14.5636 47.0025 19.6386 51.44L18.9355 51.8307C16.3886 53.0963 6.71984 58.1588 4.29796 63.5025C1.56357 69.565 4.75108 73.9088 6.84171 74.5026C13.373 76.3151 20.0574 73.0494 23.6511 67.69C27.2449 62.3307 26.8074 55.3307 25.1511 52.1432C25.1355 52.0963 25.1043 52.065 25.0886 52.0182C26.9636 50.9076 28.8544 49.8242 30.7605 48.7681C30.1355 50.4557 29.6824 52.4869 29.448 55.4244C29.1668 58.8619 30.5887 63.315 32.4324 65.065C33.2449 65.8307 34.2262 65.8463 34.8387 65.8463C36.9949 65.8463 37.9637 64.065 39.0418 61.94C40.3699 59.3463 41.5418 56.3307 41.5418 56.3307C41.5418 56.3307 40.0731 64.4869 44.0887 64.4869C45.5575 64.4869 47.0262 62.5963 47.6825 61.6275V61.6432C47.6825 61.6432 47.7137 61.5807 47.7918 61.4557C47.9481 61.2213 48.0262 61.0807 48.0262 61.0807V61.0338C48.62 60.0182 49.9168 57.69 51.87 53.8463C54.4012 48.8775 56.82 42.6744 56.82 42.6744C57.0544 44.0369 57.3794 45.3838 57.7887 46.7056C58.2262 48.19 59.1481 49.815 59.8825 51.3932C59.2887 52.2057 58.9294 52.6744 58.9294 52.6744C58.9294 52.6869 58.9356 52.6963 58.945 52.7057C58.4762 53.3307 57.945 54.0025 57.3981 54.6588C55.4012 57.0338 53.0231 59.7525 52.7106 60.5338C52.3356 61.4557 52.4293 62.1432 53.1481 62.6744C53.6794 63.0807 54.6169 63.1432 55.6012 63.065C57.3981 62.94 58.6637 62.5025 59.2731 62.2213C60.3971 61.8186 61.4594 61.2611 62.4294 60.565C64.3825 59.1275 65.57 57.065 65.4606 54.3463C65.3981 52.8463 64.9138 51.3463 64.32 49.94C64.4919 49.69 64.6794 49.4244 64.8513 49.1588C66.8846 46.1248 68.7167 42.9607 70.3356 39.6869C70.57 41.0494 70.8919 42.3963 71.3044 43.7181C71.6794 44.9838 72.4138 46.3744 73.0857 47.7338C70.1794 50.0931 68.3825 52.8275 67.7606 54.6244C66.6044 57.9525 67.5106 59.4525 69.2138 59.7963C69.9794 59.9525 71.0732 59.5932 71.8857 59.2494C73.0919 58.8463 74.2294 58.2619 75.2575 57.515C77.2107 56.0775 79.1013 54.0619 78.9732 51.3275C78.9263 50.0931 78.5826 48.8588 78.1294 47.6713C80.5826 46.64 83.7701 46.0775 87.8326 46.5463C96.5326 47.5619 98.2357 52.9994 97.9076 55.265C97.5795 57.5307 95.7514 58.7963 95.142 59.1713C94.5326 59.5463 94.3451 59.6869 94.392 59.9682C94.4701 60.3744 94.7514 60.3588 95.267 60.265C95.9857 60.14 99.8295 58.4213 100.001 54.2182C100.251 48.9056 95.142 43.0619 86.0951 43.1088L86.0888 43.1119ZM19.0293 65.7213C16.1542 68.8619 12.1261 70.0494 10.3917 69.0494C8.53234 67.9682 9.26672 63.3463 12.8105 59.9994C14.9667 57.9682 17.748 56.0932 19.5918 54.9369C20.0136 54.6869 20.623 54.3119 21.373 53.8588C21.434 53.8197 21.4965 53.7832 21.5605 53.7494C21.7011 53.6557 21.8574 53.5775 22.0136 53.4838C23.3074 58.2338 22.0605 62.4213 19.0293 65.7182V65.7213ZM40.0231 51.44C39.0231 53.8932 36.9168 60.1432 35.6324 59.815C34.5387 59.5338 33.8668 54.7682 35.4137 50.0806C36.1949 47.7213 37.8512 44.9088 38.8356 43.815C40.4137 42.0494 42.1481 41.4869 42.5543 42.19C43.1012 43.1119 40.6481 49.9088 40.0231 51.44ZM57.3669 59.7213C56.945 59.94 56.5544 60.0807 56.3669 59.9713C56.2262 59.8932 56.5387 59.5963 56.5387 59.5963C56.5387 59.5963 58.7106 57.2682 59.57 56.2057C60.07 55.5807 60.6481 54.8463 61.2731 54.0338C61.2731 54.1119 61.2887 54.19 61.2887 54.2838C61.27 57.0807 58.5825 58.9713 57.3637 59.7213H57.3669ZM70.7419 56.6744C70.4294 56.4557 70.4763 55.7213 71.5232 53.44C71.9294 52.5494 72.8669 51.0494 74.4919 49.6119C74.6763 50.1556 74.7763 50.7244 74.7888 51.2994C74.7732 54.815 72.2575 56.1275 70.7419 56.6744Z"/>
</svg>
</symbol>
<symbol id="icon-javascript" viewBox="0 0 32 32">
<svg width="100%" height="96%" viewBox="0 0 76 76"  xmlns="http://www.w3.org/2000/svg">
<path d="M41.125 34.875C41.125 32.3886 42.1127 30.004 43.8709 28.2459C45.629 26.4877 48.0136 25.5 50.5 25.5H59.875C60.7038 25.5 61.4987 25.8292 62.0847 26.4153C62.6708 27.0013 63 27.7962 63 28.625C63 29.4538 62.6708 30.2487 62.0847 30.8347C61.4987 31.4208 60.7038 31.75 59.875 31.75H50.5C49.6712 31.75 48.8763 32.0792 48.2903 32.6653C47.7042 33.2513 47.375 34.0462 47.375 34.875V38C47.375 38.8288 47.7042 39.6237 48.2903 40.2097C48.8763 40.7958 49.6712 41.125 50.5 41.125H53.625C56.1114 41.125 58.496 42.1127 60.2541 43.8709C62.0123 45.629 63 48.0136 63 50.5V53.625C63 56.1114 62.0123 58.496 60.2541 60.2541C58.496 62.0123 56.1114 63 53.625 63H44.25C43.4212 63 42.6263 62.6708 42.0403 62.0847C41.4542 61.4987 41.125 60.7038 41.125 59.875C41.125 59.0462 41.4542 58.2513 42.0403 57.6653C42.6263 57.0792 43.4212 56.75 44.25 56.75H53.625C54.4538 56.75 55.2487 56.4208 55.8347 55.8347C56.4208 55.2487 56.75 54.4538 56.75 53.625V50.5C56.75 49.6712 56.4208 48.8763 55.8347 48.2903C55.2487 47.7042 54.4538 47.375 53.625 47.375H50.5C48.0136 47.375 45.629 46.3873 43.8709 44.6291C42.1127 42.871 41.125 40.4864 41.125 38V34.875ZM38 28.625C38 27.7962 37.6708 27.0013 37.0847 26.4153C36.4987 25.8292 35.7038 25.5 34.875 25.5C34.0462 25.5 33.2513 25.8292 32.6653 26.4153C32.0792 27.0013 31.75 27.7962 31.75 28.625V53.625C31.75 54.4538 31.4208 55.2487 30.8347 55.8347C30.2487 56.4208 29.4538 56.75 28.625 56.75H22.375C21.5462 56.75 20.7513 57.0792 20.1653 57.6653C19.5792 58.2513 19.25 59.0462 19.25 59.875C19.25 60.7038 19.5792 61.4987 20.1653 62.0847C20.7513 62.6708 21.5462 63 22.375 63H28.625C31.1114 63 33.496 62.0123 35.2541 60.2541C37.0123 58.496 38 56.1114 38 53.625V28.625ZM0.5 16.125C0.5 11.981 2.1462 8.00671 5.07646 5.07646C8.00671 2.1462 11.981 0.5 16.125 0.5H59.875C64.019 0.5 67.9933 2.1462 70.9235 5.07646C73.8538 8.00671 75.5 11.981 75.5 16.125V59.875C75.5 64.019 73.8538 67.9933 70.9235 70.9235C67.9933 73.8538 64.019 75.5 59.875 75.5H16.125C11.981 75.5 8.00671 73.8538 5.07646 70.9235C2.1462 67.9933 0.5 64.019 0.5 59.875V16.125ZM16.125 6.75C13.6386 6.75 11.254 7.73772 9.49587 9.49587C7.73772 11.254 6.75 13.6386 6.75 16.125V59.875C6.75 62.3614 7.73772 64.746 9.49587 66.5041C11.254 68.2623 13.6386 69.25 16.125 69.25H59.875C62.3614 69.25 64.746 68.2623 66.5041 66.5041C68.2623 64.746 69.25 62.3614 69.25 59.875V16.125C69.25 13.6386 68.2623 11.254 66.5041 9.49587C64.746 7.73772 62.3614 6.75 59.875 6.75H16.125Z"/>
</svg>
</symbol>
<symbol id="icon-firebase" viewBox="0 0 32 32">
<path d="M5.187 20.897l3.153-20.283c0.055-0.35 0.354-0.614 0.714-0.614 0.276 0 0.515 0.154 0.637 0.381l0.002 0.004 3.391 6.361zM27.58 25.819l-3.003-18.665c-0.060-0.345-0.357-0.604-0.714-0.604-0.199 0-0.379 0.080-0.51 0.21l0-0-18.933 19.059 10.476 5.904c0.304 0.174 0.669 0.277 1.058 0.277s0.754-0.103 1.069-0.282l-0.011 0.006zM19.067 9.531l-2.427-4.643c-0.123-0.232-0.364-0.387-0.64-0.387s-0.517 0.155-0.638 0.383l-0.002 0.004-10.653 19.091z"></path>
</symbol>
<symbol id="icon-react" viewBox="0 0 32 32">
<path d="M16 13.148c-1.575 0-2.852 1.277-2.852 2.852s1.277 2.852 2.852 2.852v0c1.575 0 2.852-1.277 2.852-2.852s-1.277-2.852-2.852-2.852v0zM8.011 21.673l-0.629-0.16c-4.691-1.185-7.381-3.197-7.381-5.519s2.691-4.333 7.381-5.519l0.629-0.159 0.177 0.624c0.545 1.86 1.163 3.443 1.899 4.957l-0.082-0.186 0.135 0.284-0.135 0.284c-0.656 1.329-1.275 2.912-1.761 4.551l-0.056 0.22zM7.089 11.933c-3.565 1.001-5.753 2.533-5.753 4.061 0 1.527 2.188 3.059 5.753 4.061 0.512-1.62 1.046-2.965 1.662-4.263l-0.086 0.202c-0.531-1.098-1.066-2.443-1.511-3.828l-0.065-0.234zM23.989 21.673l-0.177-0.625c-0.544-1.859-1.162-3.441-1.9-4.954l0.081 0.184-0.135-0.284 0.135-0.284c0.656-1.329 1.275-2.911 1.762-4.55l0.056-0.221 0.177-0.624 0.631 0.159c4.689 1.185 7.38 3.197 7.38 5.52s-2.691 4.333-7.38 5.519zM23.335 15.995c0.64 1.385 1.169 2.747 1.576 4.061 3.567-1.003 5.753-2.535 5.753-4.061 0-1.528-2.188-3.059-5.753-4.061-0.511 1.619-1.045 2.963-1.662 4.262l0.086-0.2zM7.080 11.927l-0.177-0.623c-1.319-4.648-0.919-7.979 1.097-9.141 1.977-1.141 5.152 0.207 8.479 3.621l0.453 0.465-0.453 0.465c-1.146 1.19-2.207 2.482-3.162 3.853l-0.068 0.103-0.18 0.257-0.313 0.027c-1.875 0.151-3.596 0.439-5.264 0.86l0.218-0.047zM9.608 3.087c-0.357 0-0.673 0.077-0.94 0.231-1.325 0.764-1.56 3.42-0.647 7.004 1.21-0.285 2.681-0.521 4.18-0.658l0.131-0.010c0.894-1.264 1.792-2.37 2.756-3.414l-0.020 0.022c-2.080-2.025-4.049-3.175-5.46-3.175zM22.393 30.236c-0.001 0-0.001 0 0 0-1.9 0-4.34-1.431-6.872-4.031l-0.453-0.465 0.453-0.465c1.146-1.19 2.206-2.482 3.16-3.854l0.068-0.103 0.18-0.257 0.312-0.027c1.875-0.15 3.597-0.438 5.267-0.858l-0.218 0.046 0.629-0.159 0.179 0.624c1.316 4.645 0.917 7.977-1.099 9.139-0.449 0.259-0.988 0.411-1.562 0.411-0.016 0-0.031-0-0.047-0l0.002 0zM16.932 25.728c2.080 2.025 4.049 3.175 5.46 3.175h0.001c0.356 0 0.673-0.077 0.939-0.231 1.325-0.764 1.561-3.421 0.647-7.005-1.212 0.286-2.682 0.522-4.182 0.658l-0.13 0.010c-0.893 1.265-1.791 2.371-2.755 3.416l0.020-0.022zM24.92 11.927l-0.629-0.159c-1.453-0.376-3.175-0.664-4.939-0.806l-0.111-0.007-0.312-0.027-0.18-0.257c-1.021-1.474-2.082-2.766-3.237-3.966l0.009 0.010-0.453-0.465 0.453-0.465c3.325-3.413 6.499-4.761 8.479-3.621 2.016 1.163 2.416 4.493 1.099 9.14zM19.667 9.653c1.523 0.139 2.969 0.364 4.312 0.668 0.915-3.584 0.679-6.24-0.647-7.004-1.317-0.761-3.793 0.405-6.4 2.944 0.943 1.022 1.841 2.128 2.666 3.289l0.069 0.103zM9.608 30.236c-0.014 0-0.030 0-0.046 0-0.574 0-1.113-0.152-1.577-0.419l0.015 0.008c-2.016-1.161-2.416-4.492-1.097-9.139l0.176-0.624 0.629 0.159c1.54 0.388 3.239 0.661 5.047 0.812l0.313 0.027 0.179 0.257c1.022 1.475 2.083 2.767 3.239 3.967l-0.010-0.010 0.453 0.465-0.453 0.465c-2.531 2.6-4.971 4.031-6.868 4.031zM8.021 21.667c-0.915 3.584-0.679 6.241 0.647 7.005 1.316 0.751 3.791-0.407 6.4-2.944-0.943-1.022-1.841-2.129-2.667-3.29l-0.069-0.103c-1.629-0.146-3.099-0.382-4.534-0.711l0.224 0.043zM16 22.504c-1.097 0-2.225-0.048-3.355-0.141l-0.313-0.027-0.18-0.257c-0.544-0.768-1.139-1.691-1.697-2.639l-0.103-0.19c-0.452-0.758-0.971-1.732-1.45-2.728l-0.105-0.243-0.133-0.284 0.133-0.284c0.584-1.239 1.102-2.212 1.658-3.161l-0.103 0.191c0.552-0.955 1.159-1.907 1.8-2.829l0.18-0.257 0.313-0.027c1.005-0.090 2.174-0.142 3.355-0.142s2.35 0.052 3.505 0.153l-0.15-0.011 0.312 0.027 0.179 0.257c1.177 1.666 2.294 3.567 3.252 5.56l0.104 0.24 0.135 0.284-0.135 0.284c-1.058 2.232-2.176 4.133-3.439 5.925l0.083-0.125-0.179 0.257-0.312 0.027c-1.129 0.093-2.259 0.141-3.356 0.141zM13.071 21.059c1.973 0.148 3.885 0.148 5.86 0 1.004-1.445 1.978-3.104 2.827-4.836l0.101-0.228c-0.947-1.958-1.922-3.617-3.012-5.19l0.083 0.126c-0.877-0.071-1.898-0.111-2.929-0.111s-2.052 0.040-3.063 0.119l0.134-0.008c-1.008 1.447-1.983 3.106-2.83 4.84l-0.099 0.224c0.951 1.96 1.926 3.619 3.014 5.193l-0.085-0.13z"></path>
</symbol>
<symbol id="icon-instagram" viewBox="0 0 32 32">
<path d="M16 2.881c4.275 0 4.781 0.019 6.462 0.094 1.563 0.069 2.406 0.331 2.969 0.55 0.744 0.288 1.281 0.638 1.837 1.194 0.563 0.563 0.906 1.094 1.2 1.838 0.219 0.563 0.481 1.412 0.55 2.969 0.075 1.688 0.094 2.194 0.094 6.463s-0.019 4.781-0.094 6.463c-0.069 1.563-0.331 2.406-0.55 2.969-0.288 0.744-0.637 1.281-1.194 1.837-0.563 0.563-1.094 0.906-1.837 1.2-0.563 0.219-1.413 0.481-2.969 0.55-1.688 0.075-2.194 0.094-6.463 0.094s-4.781-0.019-6.463-0.094c-1.563-0.069-2.406-0.331-2.969-0.55-0.744-0.288-1.281-0.637-1.838-1.194-0.563-0.563-0.906-1.094-1.2-1.837-0.219-0.563-0.481-1.413-0.55-2.969-0.075-1.688-0.094-2.194-0.094-6.463s0.019-4.781 0.094-6.463c0.069-1.563 0.331-2.406 0.55-2.969 0.288-0.744 0.638-1.281 1.194-1.838 0.563-0.563 1.094-0.906 1.838-1.2 0.563-0.219 1.412-0.481 2.969-0.55 1.681-0.075 2.188-0.094 6.463-0.094zM16 0c-4.344 0-4.887 0.019-6.594 0.094-1.7 0.075-2.869 0.35-3.881 0.744-1.056 0.412-1.95 0.956-2.837 1.85-0.894 0.888-1.438 1.781-1.85 2.831-0.394 1.019-0.669 2.181-0.744 3.881-0.075 1.713-0.094 2.256-0.094 6.6s0.019 4.887 0.094 6.594c0.075 1.7 0.35 2.869 0.744 3.881 0.413 1.056 0.956 1.95 1.85 2.837 0.887 0.887 1.781 1.438 2.831 1.844 1.019 0.394 2.181 0.669 3.881 0.744 1.706 0.075 2.25 0.094 6.594 0.094s4.888-0.019 6.594-0.094c1.7-0.075 2.869-0.35 3.881-0.744 1.050-0.406 1.944-0.956 2.831-1.844s1.438-1.781 1.844-2.831c0.394-1.019 0.669-2.181 0.744-3.881 0.075-1.706 0.094-2.25 0.094-6.594s-0.019-4.887-0.094-6.594c-0.075-1.7-0.35-2.869-0.744-3.881-0.394-1.063-0.938-1.956-1.831-2.844-0.887-0.887-1.781-1.438-2.831-1.844-1.019-0.394-2.181-0.669-3.881-0.744-1.712-0.081-2.256-0.1-6.6-0.1v0z"></path>
<path d="M16 7.781c-4.537 0-8.219 3.681-8.219 8.219s3.681 8.219 8.219 8.219 8.219-3.681 8.219-8.219c0-4.537-3.681-8.219-8.219-8.219zM16 21.331c-2.944 0-5.331-2.387-5.331-5.331s2.387-5.331 5.331-5.331c2.944 0 5.331 2.387 5.331 5.331s-2.387 5.331-5.331 5.331z"></path>
<path d="M26.462 7.456c0 1.060-0.859 1.919-1.919 1.919s-1.919-0.859-1.919-1.919c0-1.060 0.859-1.919 1.919-1.919s1.919 0.859 1.919 1.919z"></path>
</symbol>
<symbol id="icon-twitter" viewBox="0 0 32 32">
<svg width="100%" height="100%" viewBox="0 0 18 16" fill="none" xmlns="http://www.w3.org/2000/svg">
<path d="M15.9008 4.30548V4.7688C15.9008 9.43444 12.361 14.7812 5.88378 14.7812C3.97163 14.7853 2.10009 14.2296 0.5 13.1827C0.777889 13.2204 1.0582 13.2375 1.33861 13.2337C2.92363 13.238 4.46409 12.7093 5.71235 11.7325C4.97599 11.7217 4.26178 11.479 3.67122 11.039C3.08067 10.599 2.64383 9.98403 2.42278 9.28154C2.64212 9.32804 2.86575 9.35134 3.08996 9.35104C3.40306 9.35111 3.71473 9.30903 4.0166 9.22594C3.21903 9.06695 2.50151 8.63573 1.98679 8.00608C1.47208 7.37642 1.19218 6.58746 1.19498 5.77421V5.72787C1.68295 6.00046 2.23002 6.14995 2.7888 6.1634C2.04499 5.67393 1.51614 4.91891 1.31033 4.0526C1.10452 3.1863 1.23727 2.2741 1.68147 1.50239C2.56653 2.59096 3.67077 3.48108 4.92242 4.11488C6.17406 4.74868 7.54507 5.11198 8.94633 5.18116C8.87697 4.91819 8.84423 4.6469 8.84903 4.37498C8.82294 3.65633 9.01898 2.94709 9.41044 2.34386C9.80191 1.74062 10.3698 1.27268 11.0367 1.00377C11.7037 0.734865 12.4373 0.678046 13.1377 0.841055C13.8381 1.00406 14.4713 1.37898 14.951 1.91475C15.7394 1.75563 16.4958 1.46593 17.1888 1.0576C16.926 1.88758 16.3669 2.5918 15.6181 3.03598C16.3176 2.93961 16.9995 2.74299 17.6429 2.4522C17.1766 3.16833 16.5867 3.79585 15.9008 4.30548V4.30548Z" stroke-linecap="round" stroke-linejoin="round"/>
</svg>

</symbol>
<symbol id="icon-github" viewBox="0 0 32 32">
<path d="M16 0.395c-8.836 0-16 7.163-16 16 0 7.069 4.585 13.067 10.942 15.182 0.8 0.148 1.094-0.347 1.094-0.77 0-0.381-0.015-1.642-0.022-2.979-4.452 0.968-5.391-1.888-5.391-1.888-0.728-1.849-1.776-2.341-1.776-2.341-1.452-0.993 0.11-0.973 0.11-0.973 1.606 0.113 2.452 1.649 2.452 1.649 1.427 2.446 3.743 1.739 4.656 1.33 0.143-1.034 0.558-1.74 1.016-2.14-3.554-0.404-7.29-1.777-7.29-7.907 0-1.747 0.625-3.174 1.649-4.295-0.166-0.403-0.714-2.030 0.155-4.234 0 0 1.344-0.43 4.401 1.64 1.276-0.355 2.645-0.532 4.005-0.539 1.359 0.006 2.729 0.184 4.008 0.539 3.054-2.070 4.395-1.64 4.395-1.64 0.871 2.204 0.323 3.831 0.157 4.234 1.026 1.12 1.647 2.548 1.647 4.295 0 6.145-3.743 7.498-7.306 7.895 0.574 0.497 1.085 1.47 1.085 2.963 0 2.141-0.019 3.864-0.019 4.391 0 0.426 0.288 0.925 1.099 0.768 6.354-2.118 10.933-8.113 10.933-15.18 0-8.837-7.164-16-16-16z"></path>
</symbol>
<symbol id="icon-linkedin" viewBox="0 0 32 32">
<path d="M12 12h5.535v2.837h0.079c0.77-1.381 2.655-2.837 5.464-2.837 5.842 0 6.922 3.637 6.922 8.367v9.633h-5.769v-8.54c0-2.037-0.042-4.657-3.001-4.657-3.005 0-3.463 2.218-3.463 4.509v8.688h-5.767v-18z"></path>
<path d="M2 12h6v18h-6v-18z"></path>
<path d="M8 7c0 1.657-1.343 3-3 3s-3-1.343-3-3c0-1.657 1.343-3 3-3s3 1.343 3 3z"></path>
</symbol>
<symbol id="icon-open" viewBox="0 0 20 20">
<svg width="100%" height="100%" viewBox="0 0 46 30" xmlns="http://www.w3.org/2000/svg">
<path d="M0 2.5C0 1.11929 1.11929 0 2.5 0H42.5C43.8807 0 45 1.11929 45 2.5V2.5C45 3.88071 43.8807 5 42.5 5H22.5H2.5C1.11929 5 0 3.88071 0 2.5V2.5ZM11.25 15C11.25 13.6193 12.3693 12.5 13.75 12.5H42.5C43.8807 12.5 45 13.6193 45 15V15C45 16.3807 43.8807 17.5 42.5 17.5H13.75C12.3693 17.5 11.25 16.3807 11.25 15V15ZM25.3125 27.5C25.3125 26.1193 26.4318 25 27.8125 25H42.5C43.8807 25 45 26.1193 45 27.5V27.5C45 28.8807 43.8807 30 42.5 30H27.8125C26.4318 30 25.3125 28.8807 25.3125 27.5V27.5Z"/>
</svg>
</symbol>
<symbol id='icon-close' viewBox="0 0 20 20">
<svg width="100%" height="100%" xmlns="http://www.w3.org/2000/svg" aria-hidden="true" role="img" preserveAspectRatio="xMidYMid meet" viewBox="0 0 24 24"><path d="m13.41 12l4.3-4.29a1 1 0 1 0-1.42-1.42L12 10.59l-4.29-4.3a1 1 0 0 0-1.42 1.42l4.3 4.29l-4.3 4.29a1 1 0 0 0 0 1.42a1 1 0 0 0 1.42 0l4.29-4.3l4.29 4.3a1 1 0 0 0 1.42 0a1 1 0 0 0 0-1.42Z"/></svg>
</symbol>
<symbol id="icon-copy" viewBox="0 0 24 24">
<path d="M18.984 21v-14.016h-10.969v14.016h10.969zM18.984 5.016q0.797 0 1.406 0.586t0.609 1.383v14.016q0 0.797-0.609 1.406t-1.406 0.609h-10.969q-0.797 0-1.406-0.609t-0.609-1.406v-14.016q0-0.797 0.609-1.383t1.406-0.586h10.969zM15.984 0.984v2.016h-12v14.016h-1.969v-14.016q0-0.797 0.586-1.406t1.383-0.609h12z"></path>
</symbol>
</defs>
</svg>

